<?xml version="1.0" encoding="UTF-8"?>
<svg width="89px" height="25px" viewBox="0 0 89 25" version="1.1" xmlns="http://www.w3.org/2000/svg" xmlns:xlink="http://www.w3.org/1999/xlink">
    <!-- Generator: sketchtool 51.3 (57544) - http://www.bohemiancoding.com/sketch -->
    <title>2ECB6BD1-0110-436A-9911-F1DF0C1A3A81-864-000010D661C6B276</title>
    <desc>Created with sketchtool.</desc>
    <defs>
        <path d="M3.88105087,0.679597774 C3.42246741,1.10945787 3.19310493,1.68732114 3.19310493,2.41347059 L3.19310493,4.27638633 L2.36196661,4.27638633 C0.83354372,4.27638633 0.0693322734,4.89726391 0.0693322734,6.13916057 C0.0693322734,7.40015898 0.83354372,8.03065819 2.36196661,8.03065819 L3.19310493,8.03065819 L3.19310493,13.1033752 C3.19310493,14.7274483 3.63739746,15.9932576 4.52584102,16.9008029 C5.41442607,17.8084897 6.7182973,18.3290477 8.43802067,18.4629014 L9.24043561,18.5202067 C10.1956645,18.5775119 10.9312941,18.4436582 11.4471828,18.1189285 C11.9630715,17.7941987 12.2210159,17.2972703 12.2210159,16.6285676 C12.2210159,15.5585866 11.5810366,14.9855342 10.3007949,14.9089857 L9.4696566,14.8516804 C9.12568362,14.8325787 8.8439682,14.6988665 8.62422734,14.4504022 C8.40448649,14.202221 8.2946868,13.8964515 8.2946868,13.5333768 L8.2946868,8.03065819 L9.87093482,8.03065819 C11.3993577,8.03065819 12.1637107,7.40015898 12.1637107,6.13916057 C12.1637107,4.89726391 11.3993577,4.27638633 9.87093482,4.27638633 L8.2946868,4.27638633 L8.2946868,2.41347059 C8.2946868,1.68732114 8.06532432,1.10945787 7.60688235,0.679597774 C7.14829889,0.249737679 6.52727981,0.0346661367 5.74396661,0.0346661367 C4.96051192,0.0346661367 4.33963434,0.249737679 3.88105087,0.679597774 Z" id="path-1"></path>
        <path d="M6.82102226,0.685116057 C6.04733068,1.06729253 5.45970429,1.59280286 5.05856757,2.26150556 C5.00112083,1.63100636 4.74812878,1.12473927 4.29902544,0.742562798 C3.8499221,0.360386328 3.2624372,0.169368839 2.53642925,0.169368839 C1.77221781,0.169368839 1.16563116,0.384440382 0.716527822,0.814158983 C0.267565978,1.24401908 0.0431558029,1.81254372 0.0431558029,2.51944992 L0.0431558029,17.5656852 C0.0431558029,18.2345294 0.28199841,18.7836693 0.75954213,19.2136709 C1.23708585,19.6436725 1.86772655,19.858461 2.65118124,19.858461 C3.39614944,19.858461 3.99806677,19.6579634 4.45650874,19.2568267 C4.91509221,18.8555485 5.14445469,18.3204165 5.14445469,17.6517138 L5.14445469,12.7796359 C5.56483466,13.3910334 6.15231955,13.8781987 6.90705087,14.2412734 C7.6616407,14.6042067 8.4881097,14.7858855 9.38617488,14.7858855 C10.6088283,14.7858855 11.6884308,14.4895962 12.624558,13.8973005 C13.5608267,13.3050048 14.2916455,12.4595755 14.8170143,11.3610127 C15.3425246,10.2623084 15.6051383,8.98701908 15.6051383,7.53486169 C15.6051383,6.08284579 15.3425246,4.79312401 14.8170143,3.66569634 C14.2916455,2.53855167 13.5560159,1.66439905 12.6102671,1.04352146 C11.6645183,0.422502385 10.5897266,0.112063593 9.38617488,0.112063593 C8.4499062,0.112063593 7.59485533,0.303222576 6.82102226,0.685116057 Z M5.7749539,10.0712909 C5.29726868,9.4695151 5.05856757,8.60484261 5.05856757,7.47755644 C5.05856757,6.33116852 5.29726868,5.45234658 5.7749539,4.84094913 C6.25263911,4.22955167 6.93096343,3.92392369 7.80992687,3.92392369 C8.68860731,3.92392369 9.36693164,4.23422099 9.84475835,4.85524006 C10.3224436,5.47611765 10.5610032,6.36937202 10.5610032,7.53486169 C10.5610032,8.6430461 10.3271129,9.49328617 9.85904928,10.0855819 C9.3907027,10.6778776 8.71733068,10.9741669 7.83836725,10.9741669 C6.94044356,10.9741669 6.25263911,10.6732083 5.7749539,10.0712909 Z" id="path-3"></path>
        <path d="M4.21313831,0.427313196 C3.20046264,0.637432432 2.3598442,0.914620032 1.69114149,1.25831002 C1.30896502,1.46857075 1.03191892,1.70741335 0.86000318,1.97497933 C0.68808744,2.24254531 0.602058824,2.58637679 0.602058824,3.00661526 C0.602058824,3.56084897 0.745392687,4.00981081 1.03191892,4.35364229 C1.31858665,4.69761526 1.70062162,4.8696725 2.17844833,4.8696725 C2.48407631,4.8696725 2.85663116,4.79312401 3.29597138,4.64016852 C4.80557552,4.10531955 5.95196343,3.83775358 6.73527663,3.83775358 C7.46128458,3.83775358 7.97717329,3.98589825 8.28294277,4.2820461 C8.58857075,4.57819396 8.74138474,5.06068998 8.74138474,5.72925119 L8.74138474,6.07336566 L7.96755167,6.07336566 C6.01860731,6.07336566 4.47122417,6.20693641 3.32469475,6.47450238 C2.17844833,6.74192687 1.34249921,7.17673927 0.816988871,7.7785151 C0.291620032,8.38043243 0.0288648649,9.18765819 0.0288648649,10.2001924 C0.0288648649,11.0791558 0.25327504,11.8671383 0.702378378,12.5647059 C1.15134022,13.2619905 1.76754849,13.806461 2.55100318,14.1982591 C3.33431638,14.5899157 4.21313831,14.7858855 5.18761049,14.7858855 C6.06643243,14.7858855 6.82116375,14.5947266 7.45166296,14.2126916 C8.08230366,13.8305151 8.53112401,13.2955246 8.79868998,12.6077202 C8.83689348,13.2571797 9.07106677,13.7730684 9.50092687,14.1552448 C9.93078696,14.5374213 10.4800684,14.7284388 11.1489126,14.7284388 C11.913124,14.7284388 12.5102305,14.5231304 12.9398076,14.1122305 C13.3698092,13.7014722 13.5848808,13.133089 13.5848808,12.4070811 L13.5848808,6.41705564 C13.5848808,4.29633704 13.0643227,2.71527822 12.0229237,1.67402067 C10.9815246,0.632621622 9.37202544,0.112063593 7.1938601,0.112063593 C6.21938792,0.112063593 5.22581399,0.217193959 4.21313831,0.427313196 Z M5.31651192,10.9454436 C5.03946582,10.6587758 4.90108426,10.2957011 4.90108426,9.85636089 C4.90108426,9.34047218 5.15902862,8.97272814 5.67491733,8.75284579 C6.19066455,8.53310493 7.06000636,8.42330525 8.28294277,8.42330525 L8.74138474,8.42330525 L8.74138474,8.76727822 C8.74138474,9.53148967 8.52178537,10.1573196 8.08216216,10.6444849 C7.64282194,11.1316502 7.07910811,11.3753037 6.39144515,11.3753037 C5.95196343,11.3753037 5.59369952,11.2319698 5.31651192,10.9454436 Z" id="path-5"></path>
        <path d="M0.828449921,0.672664547 C0.293176471,1.10252464 0.0258934817,1.62322417 0.0258934817,2.23476312 C0.0258934817,2.5021876 0.102300477,2.80795707 0.255255962,3.15178855 L5.12733386,12.8959444 L3.26441812,16.6504992 C3.09236089,16.9943307 3.00661526,17.328682 3.00661526,17.6535533 C3.00661526,18.2457075 3.25012719,18.7474467 3.73729253,19.1582051 C4.22474086,19.5689634 4.78350238,19.7744134 5.4138601,19.7744134 C5.85320032,19.7744134 6.25957234,19.6596614 6.6318442,19.4304404 C7.00439905,19.2012194 7.30549921,18.8477663 7.53472019,18.3700811 L15.1295755,3.15178855 C15.282248,2.84601908 15.358938,2.53076948 15.358938,2.20603975 C15.358938,1.61374404 15.1103323,1.10747695 14.6135453,0.686955485 C14.1167583,0.266717011 13.553186,0.0565977742 12.9229698,0.0565977742 C12.4833466,0.0565977742 12.0819269,0.171208267 11.7189936,0.400429253 C11.3559189,0.629791733 11.0693927,0.983244833 10.859132,1.46093005 L7.85011129,8.05258983 L4.81194277,1.46093005 C4.60196502,0.983244833 4.30086486,0.624839428 3.90920827,0.386138315 C3.51755167,0.147295707 3.09236089,0.0278744038 2.63391892,0.0278744038 C1.96535771,0.0278744038 1.36329889,0.242945946 0.828449921,0.672664547 Z" id="path-7"></path>
        <path d="M0.00734747414,0 L0.0209790239,14.8392332 L3.99565197,14.8392332 C8.11123209,14.8388019 11.4473745,11.4961545 11.4473745,7.37311506 L11.4473745,7.09611834 C11.4485225,5.21463933 10.7033789,3.40963268 9.37580944,2.07869723 C8.04809649,0.747905517 6.24672305,0 4.36858247,0 L0.00734747414,0 Z" id="path-9"></path>
        <linearGradient x1="100.008755%" y1="49.9969002%" x2="-73.9264034%" y2="49.9969002%" id="linearGradient-11">
            <stop stop-color="#00AEEF" offset="0%"></stop>
            <stop stop-color="#8755FF" offset="100%"></stop>
        </linearGradient>
        <path d="M0.0161213456,0.0332790102 L0.0161213456,8.24119695 C0.032612373,8.80336942 0.495807724,9.25227899 1.0653268,9.25813495 L1.67578414,9.25813495 C5.47711063,9.25813495 8.55847357,6.21560501 8.55847357,2.46250393 L8.55847357,0.0332790102 L0.0161213456,0.0332790102 Z" id="path-12"></path>
        <linearGradient x1="50.0006554%" y1="99.9999635%" x2="50.0006554%" y2="-159.835143%" id="linearGradient-14">
            <stop stop-color="#3FFFC1" offset="0%"></stop>
            <stop stop-color="#00AEEF" offset="100%"></stop>
        </linearGradient>
        <path d="M7.38110101,0 L7.35303733,0 C6.6928176,0.0068997626 6.03549103,0.0898406589 5.39451083,0.247241493 L5.27675911,0.27785919 C5.22381423,0.291371225 5.17072469,0.307614416 5.11864777,0.322132666 C3.55894375,0.76932353 2.20335236,1.73888392 1.2813014,3.06651324 C0.556130166,4.15437581 0.128376059,5.41099507 0.0401345961,6.71303777 L0.0401345961,6.74164304 C0.0333356637,6.83752099 0.0285619452,6.9332552 0.0256687825,7.02913315 C0.0256687825,7.09913699 0.0256687825,7.1700033 0.0200271152,7.24101336 C0.0140961317,7.31187967 0.0161213456,7.39424559 0.0161213456,7.47474282 L0.0161213456,14.8392332 L8.55586973,14.8392332 L8.5421272,0 L7.38110101,0 Z" id="path-15"></path>
        <linearGradient x1="234.899176%" y1="49.9969002%" x2="0.00326651204%" y2="49.9969002%" id="linearGradient-17">
            <stop stop-color="#00AEEF" offset="0%"></stop>
            <stop stop-color="#8755FF" offset="100%"></stop>
        </linearGradient>
        <path d="M7.35303733,0 L8.5421272,0 L8.55586973,14.8392332 L0.0161213456,14.8392332 L0.0161213456,7.47474282 C0.0161213456,7.39424559 0.0140961317,7.31187967 0.0200271152,7.24101336 C0.0256687825,7.1700033 0.0256687825,7.09913699 0.0256687825,7.02913315 C0.0285619452,6.9332552 0.0333356637,6.83752099 0.0401345961,6.74164304 L0.0401345961,6.71303777 C0.128376059,5.41099507 0.556130166,4.15437581 1.2813014,3.06651324 C2.20335236,1.73888392 3.55894375,0.76932353 5.11864777,0.322132666 C5.17072469,0.307614416 5.22381423,0.291371225 5.27675911,0.27785919 L5.39451083,0.247241493 C6.03549103,0.0898406589 6.6928176,0.0068997626 7.35303733,0 Z" id="path-18"></path>
        <linearGradient x1="6684.74082%" y1="161.365385%" x2="6684.74082%" y2="0%" id="linearGradient-20">
            <stop stop-color="#3FFFC1" offset="0%"></stop>
            <stop stop-color="#00AEEF" offset="100%"></stop>
        </linearGradient>
    </defs>
    <g id="Client-Dashboard" stroke="none" stroke-width="1" fill="none" fill-rule="evenodd">
        <g id="User---First-Time" transform="translate(-41.000000, -18.000000)">
            <g id="Dashboard-/-Top-Menu">
                <g id="tpay">
                    <g transform="translate(41.000000, 18.000000)">
                        <path d="M37.8922099,15.0165498 C39.17231,15.0929568 39.8124308,15.6661507 39.8124308,16.7361316 C39.8124308,17.4048343 39.5544865,17.9016213 39.0385978,18.2264925 C38.5227091,18.5512223 37.7870795,18.6849345 36.8318506,18.6276293 L36.0292941,18.570324 C34.3097122,18.4366118 33.0056995,17.9159122 32.1173975,17.0083669 C31.2288124,16.1008216 30.7846614,14.8350124 30.7846614,13.2109393 L30.7846614,8.13822226 L29.9535231,8.13822226 C28.4249587,8.13822226 27.6607472,7.50772305 27.6607472,6.24672464 C27.6607472,5.00482798 28.4249587,4.3838089 29.9535231,4.3838089 L30.7846614,4.3838089 L30.7846614,2.52089316 C30.7846614,1.79488521 31.0138824,1.21702194 31.4724658,0.787161844 C31.9310493,0.357160254 32.5519269,0.142230207 33.3353816,0.142230207 C34.1186948,0.142230207 34.7397138,0.357160254 35.1981558,0.787161844 C35.6567393,1.21702194 35.8861017,1.79488521 35.8861017,2.52089316 L35.8861017,4.3838089 L37.4623498,4.3838089 C38.9909141,4.3838089 39.7551256,5.00482798 39.7551256,6.24672464 C39.7551256,7.50772305 38.9909141,8.13822226 37.4623498,8.13822226 L35.8861017,8.13822226 L35.8861017,13.6409409 C35.8861017,14.0038741 35.9959014,14.3096436 36.2156423,14.5579663 C36.4353831,14.8064305 36.7170986,14.9401428 37.0610715,14.9592445 L37.8922099,15.0165498 Z" id="Fill-1" fill="#1B50C6"></path>
                        <g id="Group-6" transform="translate(27.591415, 0.107536)">
                            <mask id="mask-2" fill="white">
                                <use xlink:href="#path-1"></use>
                            </mask>
                            <g id="Clip-4"></g>
                            <polygon id="Fill-3" fill="#1B50C6" mask="url(#mask-2)" points="-237.427663 136.400636 299.310962 136.400636 299.310962 -165.514814 -237.427663 -165.514814"></polygon>
                            <polygon id="Fill-5" fill="#1B50C6" mask="url(#mask-2)" points="-1.32834976 19.9307647 13.6188394 19.9307647 13.6188394 -1.3630159 -1.32834976 -1.3630159"></polygon>
                        </g>
                        <path d="M50.5610132,4.03996328 C51.7647064,4.03996328 52.8394981,4.35040207 53.7852469,4.97142114 C54.7309957,5.59229873 55.4664838,6.46645135 55.9919941,7.59373752 C56.517363,8.72102369 56.7801181,10.0107455 56.7801181,11.4627614 C56.7801181,12.9149188 56.517363,14.1902081 55.9919941,15.2887709 C55.4664838,16.3874752 54.735665,17.2329045 53.7995378,17.8252002 C52.8632692,18.4174959 51.7838081,18.7136437 50.5610132,18.7136437 C49.662948,18.7136437 48.8366205,18.5321064 48.0818892,18.1691731 C47.3272994,17.8060984 46.739673,17.3189331 46.319293,16.7075356 L46.319293,21.5796135 C46.319293,22.2483162 46.090072,22.7833067 45.6314886,23.1845849 C45.1729051,23.5857216 44.5711293,23.7863607 43.8260196,23.7863607 C43.0425649,23.7863607 42.4120657,23.5715722 41.9343804,23.1415706 C41.4568367,22.711569 41.2179941,22.1624291 41.2179941,21.4935849 L41.2179941,6.4473496 C41.2179941,5.7404434 41.4424043,5.17191876 41.8915076,4.74205866 C42.3404695,4.31219857 42.9470561,4.09726852 43.7112676,4.09726852 C44.437417,4.09726852 45.0249019,4.28828601 45.4738638,4.67046248 C45.9229671,5.05263895 46.1761006,5.55890604 46.2334059,6.18940525 C46.6345426,5.52070254 47.222169,4.99519221 47.9960021,4.61315723 C48.7696936,4.23098076 49.6247445,4.03996328 50.5610132,4.03996328 M49.0133471,14.9019251 C49.892169,14.9019251 50.5656825,14.6057773 51.0338876,14.0134816 C51.5019512,13.4211859 51.735983,12.5709458 51.735983,11.4627614 C51.735983,10.2972717 51.4972819,9.40415882 51.0195967,8.78313975 C50.5419114,8.16212067 49.8635871,7.85168188 48.9847652,7.85168188 C48.1058017,7.85168188 47.4274774,8.15730986 46.9499337,8.76870731 C46.4722485,9.38024626 46.2334059,10.2590682 46.2334059,11.4054561 C46.2334059,12.5327423 46.4722485,13.3972733 46.9499337,13.9991906 C47.4274774,14.6011079 48.1154234,14.9019251 49.0133471,14.9019251" id="Fill-7" fill="#1B50C6"></path>
                        <g id="Group-12" transform="translate(41.174881, 3.927886)">
                            <mask id="mask-4" fill="white">
                                <use xlink:href="#path-3"></use>
                            </mask>
                            <g id="Clip-10"></g>
                            <polygon id="Fill-9" fill="#1B50C6" mask="url(#mask-4)" points="-251.011129 132.580286 285.727496 132.580286 285.727496 -169.335164 -251.011129 -169.335164"></polygon>
                            <polygon id="Fill-11" fill="#1B50C6" mask="url(#mask-4)" points="-1.35466773 21.2562846 17.0031033 21.2562846 17.0031033 -1.28561844 -1.35466773 -1.28561844"></polygon>
                        </g>
                        <path d="M65.3480165,4.03996328 C67.5261819,4.03996328 69.1358226,4.5605213 70.1772216,5.60192035 C71.2186207,6.6431779 71.7390372,8.22423672 71.7390372,10.3450968 L71.7390372,16.3349808 C71.7390372,17.0609887 71.5241072,17.6293719 71.0941056,18.0401302 C70.6645285,18.45103 70.0674219,18.6563385 69.303069,18.6563385 C68.6343663,18.6563385 68.0850849,18.465321 67.6550833,18.0831445 C67.2252232,17.700968 66.9911914,17.1850793 66.9529879,16.5354784 C66.6854219,17.2232828 66.2364601,17.7584148 65.6059609,18.1404498 C64.9754617,18.5226262 64.2207304,18.7136437 63.3419084,18.7136437 C62.3674362,18.7136437 61.4884728,18.5178154 60.7051596,18.1261588 C59.9218464,17.7345022 59.3056382,17.1898901 58.8566763,16.4926056 C58.407573,15.7951795 58.1831628,15.0070555 58.1831628,14.1280921 C58.1831628,13.1155579 58.4457765,12.3083321 58.9712868,11.7064148 C59.4966556,11.1044975 60.3326048,10.6698266 61.4789927,10.4024021 C62.6253806,10.1348361 64.1729052,10.0011238 66.1218496,10.0011238 L66.8956827,10.0011238 L66.8956827,9.65715087 C66.8956827,8.98844817 66.7427272,8.50609364 66.4370992,8.20994579 C66.1313297,7.91379793 65.6155825,7.76565326 64.8894331,7.76565326 C64.1061199,7.76565326 62.959732,8.03321924 61.4502693,8.5680682 C61.0109291,8.72102369 60.6382328,8.79743068 60.3326048,8.79743068 C59.8549196,8.79743068 59.4728846,8.62551494 59.1862169,8.28154197 C58.8995491,7.937569 58.7563568,7.48874865 58.7563568,6.93451494 C58.7563568,6.51427647 58.8422439,6.1703035 59.0143011,5.90287901 C59.1862169,5.63531304 59.463263,5.39647043 59.8452979,5.18635119 C60.5141421,4.84237822 61.3547606,4.56533211 62.3674362,4.35521288 C63.3799704,4.14509364 64.3735444,4.03996328 65.3480165,4.03996328 M64.5456016,15.3032033 C65.233406,15.3032033 65.7969784,15.0595499 66.2364601,14.5723846 C66.6759418,14.0852192 66.8956827,13.4593893 66.8956827,12.6951779 L66.8956827,12.3512049 L66.4370992,12.3512049 C65.2143043,12.3512049 64.3449625,12.4611461 63.8290738,12.6807455 C63.3131851,12.9006278 63.0552407,13.2683719 63.0552407,13.7842606 C63.0552407,14.2236008 63.1937638,14.5866755 63.4708099,14.8732017 C63.747856,15.1598695 64.1061199,15.3032033 64.5456016,15.3032033" id="Fill-13" fill="#1B50C6"></path>
                        <g id="Group-18" transform="translate(58.154213, 3.927886)">
                            <mask id="mask-6" fill="white">
                                <use xlink:href="#path-5"></use>
                            </mask>
                            <g id="Clip-16"></g>
                            <polygon id="Fill-15" fill="#1B50C6" mask="url(#mask-6)" points="-267.990461 132.580286 268.748164 132.580286 268.748164 -169.335164 -267.990461 -169.335164"></polygon>
                            <polygon id="Fill-17" fill="#1B50C6" mask="url(#mask-6)" points="-1.36895866 16.1835676 14.9825628 16.1835676 14.9825628 -1.28561844 -1.36895866 -1.28561844"></polygon>
                        </g>
                        <path d="M84.4362809,5.53028172 C84.6465417,5.0525965 84.9330679,4.6991434 85.2961426,4.46978092 C85.6590758,4.24055994 86.0604955,4.12594944 86.4999773,4.12594944 C87.130335,4.12594944 87.6939073,4.33606868 88.1906943,4.75644865 C88.6873397,5.17668712 88.9359455,5.68309571 88.9359455,6.27539141 C88.9359455,6.60026264 88.859397,6.91551224 88.7067245,7.22114022 L81.1118692,22.4394328 C80.8826482,22.917118 80.581548,23.2705711 80.2089932,23.4997921 C79.8365798,23.729013 79.4303493,23.843765 78.9910091,23.843765 C78.3605099,23.843765 77.8017483,23.6384566 77.3144415,23.2275568 C76.8272762,22.8167984 76.5836227,22.3152006 76.5836227,21.7229049 C76.5836227,21.3981752 76.6695099,21.0636824 76.8414256,20.7198509 L78.7043413,16.9654375 L73.8324049,7.22114022 C73.6794494,6.87730874 73.6030424,6.57153927 73.6030424,6.30411479 C73.6030424,5.69257583 73.8703254,5.17201781 74.4054574,4.74215771 C74.9404479,4.31229762 75.5423652,4.09722607 76.2110679,4.09722607 C76.6695099,4.09722607 77.0947006,4.21664738 77.4863572,4.45548998 C77.8780138,4.69433259 78.179114,5.0525965 78.3890917,5.53028172 L81.4271188,12.1219415 L84.4362809,5.53028172 Z" id="Fill-19" fill="#1B50C6"></path>
                        <g id="Group-24" transform="translate(73.577107, 4.069380)">
                            <mask id="mask-8" fill="white">
                                <use xlink:href="#path-7"></use>
                            </mask>
                            <g id="Clip-22"></g>
                            <polygon id="Fill-21" fill="#1B50C6" mask="url(#mask-8)" points="-283.413355 132.438792 253.32527 132.438792 253.32527 -169.476658 -283.413355 -169.476658"></polygon>
                            <polygon id="Fill-23" fill="#1B50C6" mask="url(#mask-8)" points="-1.37178855 21.1720954 16.75662 21.1720954 16.75662 -1.36994913 -1.37178855 -1.36994913"></polygon>
                        </g>
                        <g id="Group" transform="translate(0.000000, 0.282989)">
                            <g id="Group-3" transform="translate(8.508917, 0.000000)">
                                <mask id="mask-10" fill="white">
                                    <use xlink:href="#path-9"></use>
                                </mask>
                                <g id="Clip-2"></g>
                                <path d="M0.00734747414,0 L0.0209790239,14.8392332 L3.99565197,14.8392332 C8.11123209,14.8388019 11.4473745,11.4961545 11.4473745,7.37311506 L11.4473745,7.09611834 C11.4485225,5.21463933 10.7033789,3.40963268 9.37580944,2.07869723 C8.04809649,0.747905517 6.24672305,0 4.36858247,0 L0.00734747414,0 Z" id="Fill-1" fill="url(#linearGradient-11)" mask="url(#mask-10)"></path>
                            </g>
                            <g id="Group-6" transform="translate(0.000000, 14.726972)">
                                <mask id="mask-13" fill="white">
                                    <use xlink:href="#path-12"></use>
                                </mask>
                                <g id="Clip-5"></g>
                                <path d="M0.0161213456,0.0332790102 L0.0161213456,8.24119695 C0.032612373,8.80336942 0.495807724,9.25227899 1.0653268,9.25813495 L1.67578414,9.25813495 C5.47711063,9.25813495 8.55847357,6.21560501 8.55847357,2.46250393 L8.55847357,0.0332790102 L0.0161213456,0.0332790102 Z" id="Fill-4" fill="url(#linearGradient-14)" mask="url(#mask-13)"></path>
                            </g>
                            <g id="Group-9">
                                <mask id="mask-16" fill="white">
                                    <use xlink:href="#path-15"></use>
                                </mask>
                                <g id="Clip-8"></g>
                                <path d="M7.38110101,0 L7.35303733,0 C6.6928176,0.0068997626 6.03549103,0.0898406589 5.39451083,0.247241493 L5.27675911,0.27785919 C5.22381423,0.291371225 5.17072469,0.307614416 5.11864777,0.322132666 C3.55894375,0.76932353 2.20335236,1.73888392 1.2813014,3.06651324 C0.556130166,4.15437581 0.128376059,5.41099507 0.0401345961,6.71303777 L0.0401345961,6.74164304 C0.0333356637,6.83752099 0.0285619452,6.9332552 0.0256687825,7.02913315 C0.0256687825,7.09913699 0.0256687825,7.1700033 0.0200271152,7.24101336 C0.0140961317,7.31187967 0.0161213456,7.39424559 0.0161213456,7.47474282 L0.0161213456,14.8392332 L8.55586973,14.8392332 L8.5421272,0 L7.38110101,0 Z" id="Fill-7" fill="url(#linearGradient-17)" mask="url(#mask-16)"></path>
                            </g>
                            <g id="Group-12" style="mix-blend-mode: overlay;">
                                <mask id="mask-19" fill="white">
                                    <use xlink:href="#path-18"></use>
                                </mask>
                                <g id="Clip-11"></g>
                                <polygon id="Fill-10" fill="url(#linearGradient-20)" mask="url(#mask-19)" points="-0.0803656309 14.9494856 8.59912251 14.9494856 8.59912251 0 -0.0803656309 0"></polygon>
                            </g>
                        </g>
                    </g>
                </g>
            </g>
        </g>
    </g>
</svg>